<svg width="1024" height="1024" viewBox="0 0 1024 1024" fill="none" xmlns="http://www.w3.org/2000/svg">
<path fill-rule="evenodd" clip-rule="evenodd" d="M515.083 484.751L512.634 485.615H510.089L507.689 484.751L408.447 427.423L406.478 425.743L405.182 423.486L404.75 420.942L405.278 418.397L406.622 416.14L408.687 414.556L507.929 361.742L510.185 360.974H512.586L514.843 361.742L614.085 414.556L616.101 416.14L617.493 418.397L617.974 420.942L617.589 423.486L616.293 425.743L614.277 427.423L515.083 484.751Z" fill="black"/>
<path fill-rule="evenodd" clip-rule="evenodd" d="M485.842 346.278L487.906 347.911L489.251 350.167L489.731 352.808L489.251 355.401L487.906 357.657L485.842 359.29L387.752 411.479L385.399 412.296L382.95 412.248L380.598 411.383L281.691 354.249L279.675 352.52L278.378 350.216L277.994 347.623L278.571 345.03L280.011 342.822L282.124 341.237L379.829 293.321L382.038 292.649L384.342 292.697L386.551 293.417L485.842 346.278Z" fill="black"/>
<path fill-rule="evenodd" clip-rule="evenodd" d="M536.924 359.296L534.811 357.663L533.467 355.407L532.987 352.814L533.467 350.173L534.811 347.917L536.924 346.284L636.214 293.422L638.374 292.702L640.679 292.654L642.887 293.326L740.593 341.242L742.753 342.827L744.146 345.035L744.722 347.628L744.338 350.221L743.041 352.525L741.025 354.254L642.119 411.388L639.814 412.253L637.317 412.301L634.965 411.485L536.924 359.296Z" fill="black"/>
<path fill-rule="evenodd" clip-rule="evenodd" d="M867.152 267.97L869.313 269.507L870.849 271.715L871.473 274.356L871.137 276.997L869.841 279.349L867.776 281.078L769.207 338.021L766.95 338.837L764.549 338.933L762.245 338.213L665.787 290.92L663.674 289.335L662.234 287.031L661.706 284.39L662.138 281.749L663.482 279.445L665.595 277.764L764.885 224.902L767.045 224.182L769.254 224.134L771.414 224.71L867.152 267.97Z" fill="black"/>
<path fill-rule="evenodd" clip-rule="evenodd" d="M538.755 228.602L536.595 226.97L535.154 224.665L534.626 221.976L535.154 219.288L536.595 216.983L538.755 215.351L637.277 167.05L639.341 166.378L641.454 166.33L643.567 166.906L740.025 210.549L742.281 212.086L743.769 214.342L744.346 217.031L743.962 219.72L742.617 222.073L740.457 223.753L642.318 275.991L640.158 276.759H637.853L635.645 276.087L538.755 228.602Z" fill="black"/>
<path fill-rule="evenodd" clip-rule="evenodd" d="M410.889 165.855L408.921 164.463L407.576 162.542L406.808 160.285L406.856 157.933L407.672 155.676L409.113 153.804L411.081 152.507L508.308 108.576L510.324 108H512.389L514.405 108.576L611.631 152.507L613.6 153.804L615.088 155.676L615.856 157.933L615.904 160.285L615.184 162.542L613.792 164.463L611.871 165.855L514.597 213.579L512.485 214.203H510.228L508.116 213.579L410.889 165.855Z" fill="black"/>
<path fill-rule="evenodd" clip-rule="evenodd" d="M282.261 223.759L280.149 222.079L278.756 219.726L278.372 217.037L278.949 214.349L280.485 212.092L282.694 210.556L379.199 166.912L381.264 166.336L383.425 166.384L385.489 167.056L483.963 215.357L486.123 216.989L487.612 219.294L488.092 221.982L487.612 224.671L486.123 226.976L483.963 228.608L387.121 276.093L384.913 276.765H382.608L380.4 275.997L282.261 223.759Z" fill="black"/>
<path fill-rule="evenodd" clip-rule="evenodd" d="M517.86 501.934L518.34 499.437L519.589 497.228L521.557 495.596L620.799 438.269L623.248 437.404H625.841L628.289 438.365L630.258 440.045L631.506 442.35L631.842 444.942L628.001 557.292L627.521 559.644L626.321 561.709L624.496 563.293L529.143 622.78L526.743 623.789L524.15 623.837L521.701 622.972L519.637 621.34L518.34 619.131L517.86 616.539L517.86 501.934Z" fill="#529380"/>
<path fill-rule="evenodd" clip-rule="evenodd" d="M874.932 403.567L874.356 405.727L873.204 407.648L871.524 409.136L776.075 468.672L773.578 469.681H770.889L768.345 468.768L766.328 466.992L765.128 464.591L764.792 461.951L772.042 354.738L772.57 352.385L773.866 350.369L775.739 348.832L874.308 291.937L876.805 291.025L879.494 291.073L881.99 292.129L883.959 293.954L885.111 296.403L885.351 299.043L874.932 403.567Z" fill="black"/>
<path fill-rule="evenodd" clip-rule="evenodd" d="M615.576 583.61L618.072 582.65L620.713 582.602L623.161 583.466L625.178 585.194L626.474 587.499L626.858 590.139L622.969 702.537L622.537 704.793L621.433 706.81L619.705 708.394L529.392 769.034L526.944 770.09L524.303 770.235L521.806 769.418L519.742 767.786L518.349 765.529L517.869 762.937V648.714L518.301 646.266L519.502 644.105L521.374 642.425L615.576 583.61Z" fill="#529380"/>
<path fill-rule="evenodd" clip-rule="evenodd" d="M529.587 915.277L527.138 916.381L524.449 916.621L521.905 915.805L519.792 914.172L518.352 911.916L517.872 909.275V795.437L518.256 793.085L519.408 790.924L521.136 789.292L610.344 729.42L612.84 728.364L615.529 728.268L618.074 729.132L620.138 730.812L621.435 733.165L621.819 735.806L617.978 848.251L617.546 850.459L616.489 852.428L614.905 853.964L529.587 915.277Z" fill="#529380"/>
<path fill-rule="evenodd" clip-rule="evenodd" d="M737.714 507.369L740.21 506.36H742.899L745.444 507.321L747.412 509.049L748.708 511.45L748.997 514.138L741.603 623.127L741.123 625.336L740.018 627.256L738.386 628.745L647.642 689.672L645.193 690.729L642.505 690.825L639.96 689.96L637.896 688.28L636.551 685.927L636.167 683.287L640.008 572.233L640.44 569.88L641.641 567.816L643.465 566.231L737.714 507.369Z" fill="#529380"/>
<path fill-rule="evenodd" clip-rule="evenodd" d="M743.547 365.008L746.043 364H748.732L751.277 364.96L753.245 366.689L754.541 369.089L754.829 371.778L747.436 480.767L746.955 482.975L745.851 484.896L744.219 486.384L653.475 547.312L651.026 548.368L648.338 548.464L645.793 547.6L643.728 545.92L642.384 543.567L642 540.926L645.841 429.872L646.273 427.52L647.473 425.455L649.298 423.871L743.547 365.008Z" fill="#529380"/>
<path fill-rule="evenodd" clip-rule="evenodd" d="M727.869 650.585L730.365 649.48L733.054 649.384L735.647 650.297L737.711 652.073L739.007 654.474L739.296 657.21L731.902 766.631L731.47 768.743L730.413 770.664L728.877 772.152L642.838 833.896L640.39 835.048L637.653 835.24L635.06 834.424L632.947 832.696L631.603 830.343L631.171 827.654L635.012 716.553L635.444 714.296L636.596 712.279L638.277 710.695L727.869 650.585Z" fill="#529380"/>
<path fill-rule="evenodd" clip-rule="evenodd" d="M846.122 571.171L848.283 570.211L850.636 569.971L852.94 570.451L855.005 571.651L856.541 573.476L857.405 575.684L857.549 578.037L847.035 684.241L846.507 686.257L845.498 688.034L843.962 689.474L757.299 751.746L755.186 752.755L752.833 753.091L750.481 752.658L748.416 751.506L746.832 749.778L745.872 747.617L745.631 745.217L752.929 639.188L753.41 636.979L754.562 635.059L756.194 633.522L846.122 571.171Z" fill="black"/>
<path fill-rule="evenodd" clip-rule="evenodd" d="M396.005 590.333L396.389 587.74L397.686 585.436L399.702 583.707L402.151 582.795L404.792 582.843L407.288 583.851L501.489 642.667L503.362 644.3L504.562 646.46L504.994 648.909V763.131L504.514 765.724L503.122 768.029L501.057 769.661L498.561 770.429L495.92 770.333L493.471 769.277L403.159 708.637L401.431 707.052L400.326 705.036L399.894 702.731L396.005 590.333Z" fill="black"/>
<path fill-rule="evenodd" clip-rule="evenodd" d="M407.964 854.212L406.379 852.628L405.323 850.659L404.891 848.498L401.05 736.053L401.434 733.364L402.73 731.06L404.795 729.332L407.34 728.467L410.028 728.611L412.525 729.668L501.732 789.539L503.461 791.172L504.613 793.284L504.997 795.685V909.475L504.517 912.115L503.077 914.42L500.964 916.052L498.419 916.821L495.731 916.629L493.282 915.476L407.964 854.212Z" fill="black"/>
<path fill-rule="evenodd" clip-rule="evenodd" d="M381.747 539.583L381.363 542.223L380.066 544.528L378.05 546.256L375.553 547.12L372.913 547.072L370.464 546.112L275.063 486.528L273.286 485.04L272.134 483.023L271.606 480.767L264.26 372.21L264.548 369.57L265.748 367.217L267.717 365.441L270.166 364.48L272.806 364.432L275.303 365.345L374.209 422.431L376.13 424.016L377.426 426.128L377.906 428.577L381.747 539.583Z" fill="black"/>
<path fill-rule="evenodd" clip-rule="evenodd" d="M137.508 299.276L137.748 296.588L138.9 294.187L140.869 292.363L143.366 291.306L146.054 291.258L148.551 292.123L247.12 349.065L248.993 350.602L250.289 352.618L250.817 354.971L258.067 462.136L257.731 464.824L256.531 467.177L254.514 468.954L251.97 469.914L249.281 469.866L246.784 468.906L151.336 409.321L149.655 407.881L148.503 405.96L147.927 403.8L137.508 299.276Z" fill="black"/>
<path fill-rule="evenodd" clip-rule="evenodd" d="M267.623 603.337L267.286 606.026L265.99 608.426L263.926 610.203L261.381 611.115L258.644 611.019L256.148 609.963L165.067 548.842L163.435 547.354L162.33 545.529L161.802 543.417L151.335 438.077L151.576 435.34L152.776 432.892L154.792 431.067L157.337 430.107H160.026L162.57 431.067L256.868 489.931L258.644 491.468L259.796 493.436L260.324 495.693L267.623 603.337Z" fill="black"/>
<path fill-rule="evenodd" clip-rule="evenodd" d="M277.223 745.46L276.983 747.812L276.022 749.973L274.438 751.749L272.373 752.902L270.021 753.334L267.668 752.998L265.556 751.941L178.892 689.717L177.356 688.277L176.348 686.452L175.82 684.436L165.305 578.28L165.449 575.879L166.313 573.719L167.85 571.894L169.914 570.694L172.219 570.166L174.571 570.406L176.732 571.414L266.66 631.767L268.292 633.303L269.444 635.223L269.924 637.384L277.223 745.46Z" fill="black"/>
<path fill-rule="evenodd" clip-rule="evenodd" d="M391.69 827.897L391.258 830.586L389.914 832.939L387.801 834.619L385.208 835.435L382.472 835.291L380.023 834.139L293.984 772.347L292.448 770.859L291.392 768.986L290.96 766.874L283.566 657.405L283.854 654.717L285.15 652.316L287.215 650.54L289.807 649.627L292.496 649.723L294.993 650.78L384.585 710.891L386.265 712.476L387.418 714.492L387.85 716.797L391.69 827.897Z" fill="black"/>
</svg>
